HIERARCHY
ROOT root
{
	OFFSET 0.000000 0.000000 0.000000
	CHANNELS 6 Xposition Yposition Zposition Zrotation Yrotation Xrotation
	JOINT lhip
	{
		OFFSET 0.058581 -0.082280 -0.017664
		CHANNELS 3 Zrotation Yrotation Xrotation
		JOINT lknee
		{
			OFFSET 0.043451 -0.386469 0.008037
			CHANNELS 3 Zrotation Yrotation Xrotation
			JOINT lankle
			{
				OFFSET -0.014790 -0.426874 -0.037428
				CHANNELS 3 Zrotation Yrotation Xrotation
				JOINT ltoe
				{
					OFFSET 0.041054 -0.060286 0.122042
					CHANNELS 3 Zrotation Yrotation Xrotation
					End Site
					{
						OFFSET 0.000000 0.000000 0.000000
					}
				}
			}
		}
	}
	JOINT rhip
	{
		OFFSET -0.060310 -0.090513 -0.013543
		CHANNELS 3 Zrotation Yrotation Xrotation
		JOINT rknee
		{
			OFFSET -0.043257 -0.383688 -0.004843
			CHANNELS 3 Zrotation Yrotation Xrotation
			JOINT rankle
			{
				OFFSET 0.019056 -0.420046 -0.034562
				CHANNELS 3 Zrotation Yrotation Xrotation
				JOINT rtoe
				{
					OFFSET -0.034840 -0.062106 0.130323
					CHANNELS 3 Zrotation Yrotation Xrotation
					End Site
					{
						OFFSET 0.000000 0.000000 0.000000
					}
				}
			}
		}
	}
	JOINT lowerback
	{
		OFFSET 0.004439 0.124404 -0.038385
		CHANNELS 3 Zrotation Yrotation Xrotation
		JOINT upperback
		{
			OFFSET 0.004488 0.137956 0.026820
			CHANNELS 3 Zrotation Yrotation Xrotation
			JOINT chest
			{
				OFFSET -0.002265 0.056032 0.002855
				CHANNELS 3 Zrotation Yrotation Xrotation
				JOINT lowerneck
				{
					OFFSET -0.013390 0.211636 -0.033468
					CHANNELS 3 Zrotation Yrotation Xrotation
					JOINT upperneck
					{
						OFFSET 0.010113 0.088937 0.050410
						CHANNELS 3 Zrotation Yrotation Xrotation
						End Site
						{
							OFFSET 0.000000 0.000000 0.000000
						}
					}
				}
				JOINT lclavicle
				{
					OFFSET 0.071702 0.114000 -0.018898
					CHANNELS 3 Zrotation Yrotation Xrotation
					JOINT lshoulder
					{
						OFFSET 0.122921 0.045205 -0.019046
						CHANNELS 3 Zrotation Yrotation Xrotation
						JOINT lelbow
						{
							OFFSET 0.255332 -0.015649 -0.022946
							CHANNELS 3 Zrotation Yrotation Xrotation
							JOINT lwrist
							{
								OFFSET 0.265709 0.012698 -0.007375
								CHANNELS 3 Zrotation Yrotation Xrotation
								End Site
								{
									OFFSET 0.000000 0.000000 0.000000
								}
							}
						}
					}
				}
				JOINT rclavicle
				{
					OFFSET -0.082954 0.112472 -0.023707
					CHANNELS 3 Zrotation Yrotation Xrotation
					JOINT rshoulder
					{
						OFFSET -0.113228 0.046853 -0.008472
						CHANNELS 3 Zrotation Yrotation Xrotation
						JOINT relbow
						{
							OFFSET -0.260127 -0.014369 -0.031269
							CHANNELS 3 Zrotation Yrotation Xrotation
							JOINT rwrist
							{
								OFFSET -0.269108 0.006794 -0.006027
								CHANNELS 3 Zrotation Yrotation Xrotation
								End Site
								{
									OFFSET 0.000000 0.000000 0.000000
								}
							}
						}
					}
				}
			}
		}
	}
}
MOTION
Frames: 7
Frame Time: 0.033333
-0.167656 0.104651 0.940326 135.497409 -14.850700 123.925325 1.216590 -3.629036 -39.153101 -8.382264 -14.682554 21.390786 -10.764705 -6.001134 -7.176369 0.000000 -0.000000 0.000000 -12.033319 -9.740615 -64.928192 -1.276898 -13.622224 36.696548 4.646395 -1.528799 -11.589040 0.000000 -0.000000 0.000000 18.174321 -12.441295 71.382726 -5.906721 11.519265 -3.215179 5.959943 4.135303 7.224680 -2.481001 -23.909482 -2.974921 6.733370 -1.477706 -22.296415 -13.410028 -15.823953 -8.251688 -62.642058 -9.112775 25.257001 25.592065 -73.663157 4.438035 6.343517 -4.158072 -23.743365 -16.905821 27.849263 -9.609617 -16.796819 8.108054 -34.003909 -3.665334 13.134135 -35.254871 -23.935302 7.544446 -15.597891 
-0.167254 0.105087 0.940320 135.583157 -14.876524 123.964361 1.179898 -3.704627 -39.295601 -8.330126 -14.663496 21.573710 -10.814133 -6.034024 -7.074476 0.000000 -0.000000 0.000000 -12.013805 -9.872167 -64.939898 -1.207625 -13.631688 36.695864 4.682558 -1.460145 -11.612767 0.000000 -0.000000 0.000000 18.412058 -12.497757 71.363836 -5.932364 11.467258 -3.364452 5.922610 4.137867 7.239718 -2.442178 -23.931926 -2.771215 6.829190 -1.509356 -22.531759 -13.458917 -16.075272 -8.061617 -62.703451 -9.144854 25.224040 25.096541 -73.596240 5.145708 6.490690 -3.910416 -23.819711 -16.950895 27.956233 -9.557181 -16.683265 7.868627 -33.722356 -3.906779 13.320126 -34.367779 -24.160435 6.997834 -15.245757 
-0.166499 0.104677 0.940139 135.498002 -14.769193 124.037074 1.364342 -3.628312 -39.347454 -8.366767 -14.596340 21.577256 -10.909681 -6.034763 -7.010526 0.000000 -0.000000 0.000000 -11.989577 -9.633953 -64.997003 -1.202128 -13.649459 36.677454 4.588707 -1.594966 -11.629891 0.000000 -0.000000 0.000000 18.265642 -12.279310 71.378289 -5.909891 11.496750 -3.252794 5.993115 4.193271 7.159944 -2.516411 -23.863701 -2.595398 6.939689 -1.374550 -22.725399 -13.501757 -16.218030 -7.946160 -62.668027 -9.059684 25.130391 25.382514 -73.697766 4.733823 6.467455 -3.877443 -23.538178 -16.996014 28.092258 -9.492720 -16.574527 7.752268 -33.700168 -4.197026 13.558673 -34.190348 -23.833518 7.060840 -14.963607 
-0.165719 0.104894 0.940178 135.490831 -14.804439 124.182853 1.263123 -3.530241 -39.483496 -8.331448 -14.572762 21.664194 -10.942641 -6.148557 -6.964402 0.000000 -0.000000 0.000000 -11.937887 -9.726276 -65.108118 -1.288483 -13.743909 36.745178 4.595187 -1.400245 -11.637687 0.000000 -0.000000 0.000000 18.224377 -12.445381 71.522510 -6.141736 11.233353 -3.681055 5.873496 4.162723 7.197643 -2.729038 -23.752294 -1.992830 6.979739 -1.096255 -22.955910 -13.313874 -16.068251 -8.042403 -62.654406 -8.718032 24.837443 25.050296 -73.914574 5.262225 6.356120 -3.766969 -24.179727 -17.576363 28.002724 -10.714268 -15.426307 8.738753 -33.430030 -4.554451 13.566581 -33.722768 -23.940861 7.163165 -14.370636 
-0.165089 0.104455 0.940418 135.415929 -14.717549 124.108163 1.439857 -3.512496 -39.319734 -8.348615 -14.553460 21.543558 -10.961355 -6.118777 -6.914737 0.000000 -0.000000 0.000000 -11.913142 -9.481637 -64.994356 -1.221019 -13.630856 36.646433 4.600028 -1.633861 -11.639989 0.000000 -0.000000 0.000000 18.132640 -12.069243 71.472456 -5.892696 11.402310 -3.274155 6.057331 4.120933 7.317875 -2.370259 -23.517994 -2.792781 6.874564 -1.502437 -22.568700 -13.271784 -16.112850 -8.054236 -62.884869 -9.164020 25.090496 25.633002 -73.699332 4.535582 6.551952 -3.955028 -23.930676 -17.172389 27.891827 -9.716106 -16.249279 8.275979 -33.456933 -4.660158 13.859586 -33.605091 -24.238936 7.145484 -14.461925 
-0.164728 0.104743 0.940690 135.569198 -14.748374 124.118309 1.330713 -3.621219 -39.396360 -8.259106 -14.719138 21.617273 -11.078700 -5.918693 -6.755215 0.000000 -0.000000 0.000000 -11.895944 -9.618784 -64.931656 -1.249890 -13.779587 36.594089 4.580309 -1.549696 -11.665712 0.000000 -0.000000 0.000000 18.352880 -12.360413 71.452543 -6.029379 11.266914 -3.448709 5.933228 4.093235 7.471133 -2.399662 -23.458541 -2.829641 6.877840 -1.352946 -22.634328 -13.208730 -16.130427 -8.160259 -62.835804 -9.179596 25.038972 25.668531 -73.931071 4.525675 6.369651 -3.590811 -23.861783 -17.158027 27.902800 -9.751791 -16.294543 8.358701 -33.563415 -4.616562 13.880037 -33.354651 -24.909729 7.060325 -13.853118 
-0.164440 0.105278 0.940766 135.639414 -14.834563 124.154291 1.265257 -3.753461 -39.351788 -8.214690 -14.803421 21.526568 -11.085294 -5.937416 -6.795630 0.000000 -0.000000 0.000000 -11.943963 -9.790470 -64.934571 -1.243577 -13.851242 36.616051 4.605074 -1.448781 -11.751769 0.000000 -0.000000 0.000000 18.437217 -12.524041 71.486716 -6.124672 11.083272 -3.762355 5.851205 4.087937 7.590178 -2.479700 -23.378084 -2.475189 6.955741 -1.312664 -22.754071 -13.132438 -16.125890 -8.185356 -62.851276 -9.098473 25.047709 25.560960 -73.896696 4.941691 6.926315 -3.962569 -24.351821 -17.314496 27.906284 -10.194572 -15.795124 8.725309 -33.417376 -4.832876 13.871701 -33.057475 -24.983607 7.074948 -13.786471 
